# 3ds Max Wavefront OBJ Exporter v0.99 - (c)2007 guruware
# File Created: 10.05.2024 02:25:12

mtllib pasillo.mtl

#
# object Box001
#

v  -27.8779 0.0000 153.9576
v  -27.8779 0.0000 -132.3190
v  33.3057 0.0000 -132.3190
v  33.3057 0.0000 153.9576
v  -27.8779 1.7590 153.9576
v  33.3057 1.7590 153.9576
v  33.3057 1.7590 -132.3190
v  -27.8779 1.7590 -132.3190
# 8 vertices

vn 0.0000 -1.0000 -0.0000
vn 0.0000 1.0000 -0.0000
vn 0.0000 0.0000 1.0000
vn 1.0000 0.0000 -0.0000
vn 0.0000 0.0000 -1.0000
vn -1.0000 0.0000 -0.0000
# 6 vertex normals

vt -0.5196 -9.5756 0.4876
vt -0.5196 12.3456 0.4876
vt 5.9696 12.3456 0.4876
vt 5.9696 -9.5756 0.4876
vt -0.5196 -9.5756 0.5024
vt 5.9696 -9.5756 0.5024
vt 5.9696 12.3456 0.5024
vt -0.5196 12.3456 0.5024
# 8 texture coords

o Box001
g Box001
usemtl 14___Default
s 2
f 1/1/1 2/2/1 3/3/1 
f 3/3/1 4/4/1 1/1/1 
s 4
f 5/5/2 6/6/2 7/7/2 
f 7/7/2 8/8/2 5/5/2 
s 8
f 1/1/3 4/4/3 6/6/3 
f 6/6/3 5/5/3 1/1/3 
s 16
f 4/4/4 3/3/4 7/7/4 
f 7/7/4 6/6/4 4/4/4 
s 32
f 3/3/5 2/2/5 8/8/5 
f 8/8/5 7/7/5 3/3/5 
s 64
f 2/2/6 1/1/6 5/5/6 
f 5/5/6 8/8/6 2/2/6 
# 12 faces

