# 3ds Max Wavefront OBJ Exporter v0.99 - (c)2007 guruware
# File Created: 09.05.2024 03:14:17

mtllib tienda.mtl

#
# object Box001
#

v  70.4220 0.0000 7.1831
v  70.4220 0.0000 28.2510
v  -40.0303 0.0000 28.2510
v  -40.0303 0.0000 7.1831
v  70.4220 57.8113 7.1831
v  -40.0303 57.8113 7.1831
v  -40.0303 57.8113 28.2510
v  70.4220 57.8113 28.2510
# 8 vertices

vn 0.0000 -1.0000 -0.0000
vn 0.0000 1.0000 -0.0000
vn 0.0000 0.0000 1.0000
vn 1.0000 0.0000 -0.0000
vn 0.0000 0.0000 -1.0000
vn -1.0000 0.0000 -0.0000
# 6 vertex normals

vt -0.0088 0.7915 0.0420
vt -0.0088 0.0285 0.0420
vt 1.0088 0.0285 0.0420
vt 1.0088 0.7915 0.0420
vt 1.0088 0.7915 0.9580
vt -0.0088 0.7915 0.9580
vt -0.0088 0.0285 0.9580
vt 1.0088 0.0285 0.9580
vt 1.0088 0.7856 0.0348
vt -0.0088 0.7856 0.0348
vt -0.0088 0.0344 0.0348
vt 1.0088 0.0344 0.0348
vt 0.9652 0.7856 1.0088
vt 0.0348 0.7856 1.0088
vt 0.0348 0.0344 1.0088
vt 0.9652 0.0344 1.0088
vt 1.0088 0.7856 0.9652
vt -0.0088 0.7856 0.9652
vt -0.0088 0.0344 0.9652
vt 1.0088 0.0344 0.9652
vt 0.9652 0.7856 -0.0088
vt 0.0348 0.7856 -0.0088
vt 0.0348 0.0344 -0.0088
vt 0.9652 0.0344 -0.0088
# 24 texture coords

o Box001
g Box001
usemtl wire_108008136
s 2
f 1/1/1 2/2/1 3/3/1 
f 3/3/1 4/4/1 1/1/1 
s 4
f 5/5/2 6/6/2 7/7/2 
f 7/7/2 8/8/2 5/5/2 
usemtl wire_008110135
s 8
f 8/9/3 7/10/3 3/11/3 
f 3/11/3 2/12/3 8/9/3 
usemtl wire_108008136
s 16
f 5/13/4 8/14/4 2/15/4 
f 2/15/4 1/16/4 5/13/4 
s 32
f 6/17/5 5/18/5 1/19/5 
f 1/19/5 4/20/5 6/17/5 
s 64
f 7/21/6 6/22/6 4/23/6 
f 4/23/6 3/24/6 7/21/6 
# 12 faces

